<?xml version="1.0" encoding="UTF-8"?>
<svg xmlns="http://www.w3.org/2000/svg" xmlns:xlink="http://www.w3.org/1999/xlink" viewBox="0 0 500 500">
  <defs>
    <style>
      .cls-1 {
        fill: none;
      }

      .cls-2 {
        fill: #f98d3d;
      }

      .cls-3 {
        fill: #00668e;
      }

      .cls-4 {
        fill: #05556d;
      }

      .cls-5 {
        fill: #67c9c2;
      }

      .cls-6 {
        fill: #ed701b;
      }

      .cls-7 {
        fill: #f77e2d;
      }

      .cls-8 {
        fill: #fff;
      }

      .cls-9 {
        fill: #ff9f50;
      }

      .cls-10 {
        fill: #ffbf4d;
      }

      .cls-11 {
        fill: #efaa3a;
      }

      .cls-12 {
        fill: #31afa9;
      }

      .cls-13 {
        fill: #d7f0f9;
      }

      .cls-14 {
        fill: #0582c1;
      }

      .cls-15 {
        fill: #49b4d6;
      }

      .cls-16 {
        fill: #79c9e8;
      }

      .cls-17 {
        fill: #f98d2b;
        mix-blend-mode: multiply;
        opacity: .29;
      }

      .cls-18 {
        fill: url(#linear-gradient);
        mix-blend-mode: overlay;
      }

      .cls-18, .cls-19 {
        opacity: .55;
      }

      .cls-20 {
        isolation: isolate;
      }

      .cls-19 {
        fill: #90cedd;
      }
    </style>
    <linearGradient id="linear-gradient" x1="271.41" y1="361.34" x2="271.41" y2="337.29" gradientUnits="userSpaceOnUse">
      <stop offset="0" stop-color="#fff"/>
      <stop offset=".12" stop-color="#fff" stop-opacity=".82"/>
      <stop offset=".3" stop-color="#fff" stop-opacity=".58"/>
      <stop offset=".47" stop-color="#fff" stop-opacity=".37"/>
      <stop offset=".64" stop-color="#fff" stop-opacity=".21"/>
      <stop offset=".78" stop-color="#fff" stop-opacity=".1"/>
      <stop offset=".91" stop-color="#fff" stop-opacity=".02"/>
      <stop offset="1" stop-color="#fff" stop-opacity="0"/>
    </linearGradient>
  </defs>
  <g class="cls-20">
    <g id="BACKGROUND">
      <rect class="cls-8" width="500" height="500"/>
    </g>
    <g id="OBJECTS">
      <g>
        <path class="cls-12" d="m453.06,393.56c6.95,0,12.62-5.57,12.73-12.52.53-34.64,3.32-85.75-61.92-99.88-52.8-11.44-21.49-105.27-163.69-99.21-102.07,4.35-74.96,90.39-154.32,97.55-52.81,4.77-53.27,71.56-51.24,102.16.44,6.69,6,11.89,12.71,11.89h405.73Z"/>
        <path class="cls-19" d="m403.87,281.15c-52.8-11.44-21.49-105.27-163.69-99.21-24.28,1.03-41.24,6.7-54.07,14.81,4.32-.57,8.91-.97,13.8-1.17,142.19-6.06,110.89,87.77,163.69,99.21,64.55,13.98,62.51,64.15,61.94,98.76h27.52c6.95,0,12.62-5.57,12.73-12.52.53-34.64,3.32-85.75-61.92-99.88Z"/>
        <g>
          <rect class="cls-16" x="177.77" width="2.24" height="163.8"/>
          <rect class="cls-16" x="338.74" width="2.24" height="188.96"/>
          <g>
            <path class="cls-13" d="m340.77,177.95l-166.95-19.49c-7.13-.83-13.59,4.28-14.43,11.41l-12.46,106.75c-.83,7.13,4.28,13.59,11.41,14.43l166.95,19.49c7.13.83,13.59-4.28,14.43-11.41l12.46-106.75c.83-7.13-4.28-13.59-11.41-14.43Z"/>
            <path class="cls-12" d="m350.95,202.94l1.23-10.57c.83-7.13-4.28-13.59-11.41-14.43l-166.95-19.49c-7.13-.83-13.59,4.28-14.43,11.41l-1.23,10.57,192.78,22.5Z"/>
            <g>
              <path class="cls-5" d="m185.18,245.08l21.16-37.29c1.36-2.39,4.01-3.73,6.74-3.42h0c3.75.44,6.44,3.83,6,7.58l-4.4,37.72.19.02c2.6.3,4.46,2.66,4.16,5.25h0c-.3,2.6-2.66,4.46-5.25,4.16l-.19-.02-.8,6.87c-.33,2.81-2.87,4.82-5.67,4.49h0c-2.81-.33-4.82-2.87-4.49-5.67l.8-6.87-15.24-1.78c-2.6-.3-4.47-2.66-4.16-5.26l.4-3.46c.1-.82.35-1.6.76-2.32Zm19.41,2.79l2.73-23.39c.02-.16-.2-.23-.28-.09l-12.5,22.06c-.22.39.03.88.47.93l8.89,1.04c.34.04.65-.21.69-.55Z"/>
              <path class="cls-5" d="m278.57,255.98l21.16-37.29c1.36-2.39,4.01-3.73,6.74-3.42h0c3.75.44,6.44,3.83,6,7.58l-4.4,37.72.19.02c2.6.3,4.46,2.66,4.16,5.25h0c-.3,2.6-2.66,4.46-5.25,4.16l-.19-.02-.8,6.87c-.33,2.81-2.87,4.82-5.67,4.49h0c-2.81-.33-4.82-2.87-4.49-5.67l.8-6.87-15.24-1.78c-2.6-.3-4.47-2.66-4.16-5.26l.4-3.46c.1-.82.35-1.6.76-2.32Zm19.41,2.79l2.73-23.39c.02-.16-.2-.23-.28-.09l-12.5,22.06c-.22.39.03.88.47.93l8.89,1.04c.34.04.65-.21.69-.55Z"/>
              <path class="cls-5" d="m236.59,223.14c1.23-10.54,7.48-15.91,17.65-14.73,10.16,1.19,15.01,7.86,13.78,18.39l-4,34.25c-1.23,10.54-7.48,15.91-17.65,14.73-10.16-1.19-15.01-7.86-13.78-18.39l4-34.25Zm6.28,36.12c-.55,4.7,1.31,6.73,4.61,7.12,3.29.38,5.57-1.16,6.12-5.87l4.15-35.57c.55-4.7-1.31-6.73-4.61-7.12-3.29-.38-5.57,1.16-6.12,5.87l-4.15,35.57Z"/>
            </g>
            <g>
              <path class="cls-8" d="m177.85,173.21c-.22,1.92-1.96,3.29-3.88,3.07-1.92-.22-3.29-1.96-3.07-3.88.22-1.92,1.96-3.29,3.88-3.07s3.29,1.96,3.07,3.88Z"/>
              <path class="cls-16" d="m194.59,175.17c-.22,1.92-1.96,3.29-3.88,3.07-1.92-.22-3.29-1.96-3.07-3.88s1.96-3.29,3.88-3.07c1.92.22,3.29,1.96,3.07,3.88Z"/>
              <path class="cls-10" d="m211.95,177.19c-.22,1.92-1.96,3.29-3.88,3.07s-3.29-1.96-3.07-3.88c.22-1.92,1.96-3.29,3.88-3.07,1.92.22,3.29,1.96,3.07,3.88Z"/>
            </g>
          </g>
        </g>
        <g>
          <path class="cls-3" d="m144.79,298.79s-2.26,10-1.88,20.22c.34,9.15-.75,69.31-.75,69.31h7.35s10.46-47.12,10.85-50.84c.39-3.72,5.65-40.93,5.65-40.93l-21.22,2.24Z"/>
          <path class="cls-14" d="m149.68,296.05s1.69,12.85,4.57,21.99c2.88,9.13,17.01,70.29,17.01,70.29h7.35s-1.35-47.12-1.86-50.84c-.51-3.72-4.23-40.93-4.23-40.93l-22.83-.51Z"/>
          <path class="cls-14" d="m171.85,388.31v5.13h13.99c.79,0,1.11-1.03.44-1.47-2.05-1.36-5.32-3.24-8.37-3.66h-6.06Z"/>
          <path class="cls-14" d="m142.54,388.31v5.13h13.99c.79,0,1.11-1.03.44-1.47-2.05-1.36-5.32-3.24-8.37-3.66h-6.06Z"/>
          <g>
            <path class="cls-3" d="m167.77,236.26s4.81-7.31-.71-8.02c-4.24-.55-5.99.72-5.99.72,0,0-4.88-.54-7.56,1.78-1.83,1.59-8.55,13.9,2.32,18.35s8.55-6.95,8.55-6.95l3.39-5.88Z"/>
            <path class="cls-4" d="m167.06,228.24c-4.24-.55-5.99.72-5.99.72,0,0-4.88-.54-7.56,1.78-1.83,1.59-8.55,13.9,2.32,18.35,5.11,2.09,7.3.68,8.2-1.4-10.31,2.9-11.43-9.53-9.73-13.06,1.73-3.59,5.87-1.94,5.87-1.94,1.62-4.08,6.91-3.64,9.09-3.32-.4-.57-1.09-.98-2.2-1.13Z"/>
            <path class="cls-2" d="m161,239.82s-1.43-1.43-2.49,0c-1.07,1.43-.36,4.63,1.43,4.81,0,0-.53,4.63-4.1,4.45v3.74h8.37v-2.85s5.17-2.14,4.99-6.41c-.18-4.28-1.43-7.31-1.43-7.31,0,0-2.85,3.21-6.77,3.56Z"/>
            <path class="cls-6" d="m162.28,251.17c.83.35.68.87.72,1.65h1.2v-2.85s-2.03.64-5-1.05c0,0,1.73,1.69,3.08,2.25Z"/>
          </g>
          <path class="cls-2" d="m164,233s-4.34-1.73-4.85-.43c-.33.85.51,1.58,1.67,2.32l-1.02.17c-.23.04-.31.33-.13.47.28.23,1.07.38,2.71.44l1.62-2.97Z"/>
          <g>
            <polygon class="cls-1" points="138.18 280.07 143.99 298.82 143.89 297.87 143.99 298.82 145.96 271.52 138.18 280.07"/>
            <path class="cls-10" d="m195,243.87c-8.28-6.13-30.88-11.04-30.88-11.04l-1.86,3.39s20.52,7.95,19.17,9.14c-.8.7-10.82,5.29-14.22,6.84-.73.33-1.52.49-2.33.48l-10.39-.06s-7.5-.89-13.39,5.88c-5.27,6.07-14.23,20.12-14.23,20.12l15.1,22.2,1.67,2.45v-.03s0,.21,0,.21c0,0,.54.06,1.49.15,4.85.45,20.41,1.68,28.64-.07l.23-.05-.39-36.42c13.14-10.4,19.42-18.44,21.66-20.96.59-.67.48-1.69-.24-2.23Zm-50.66,49.67l-1.47-3.22-4.69-10.25,7.78-8.72-1.4,19.13-.22,3.06Z"/>
          </g>
          <polygon class="cls-11" points="142.87 290.32 144.34 293.54 143.63 303.25 143.61 303.28 141.94 300.83 142.87 290.32"/>
          <path class="cls-17" d="m170.06,265.76c-1.4,1.02-1.04,10.02-1.39,15.65-.58,9.43-1.14,17.59-.73,22.85,2.13-.14,4.11-.37,5.79-.73l.23-.05-.39-36.42c13.14-10.4,19.42-18.44,21.66-20.96.59-.67.48-1.69-.24-2.23,0,0-10.39,11.33-24.93,21.89Z"/>
          <path class="cls-3" d="m176.74,337.49c-.37-2.68-2.41-22.8-3.51-33.8l-5.28.58s7.7,63.33,8.21,84.06h2.44s-1.35-47.12-1.86-50.84Z"/>
          <g>
            <path class="cls-14" d="m142.88,240.86l-1.59-2.85c.8-1.5,1.25-3.22,1.25-5.04,0-5.95-4.83-10.78-10.78-10.78s-10.78,4.83-10.78,10.78,4.83,10.78,10.78,10.78c3,0,5.71-1.23,7.66-3.2l3.46.31Z"/>
            <g>
              <path class="cls-8" d="m126.15,231.99h.42v1.5c0,.46.14.66.46.66.25,0,.43-.13.66-.41v-1.75h.41v2.46h-.34l-.04-.38h-.02c-.23.27-.47.45-.81.45-.52,0-.75-.33-.75-.96v-1.56Z"/>
              <path class="cls-8" d="m129.86,234.65v.83h-.42v-3.5h.34l.03.28h.02c.22-.19.5-.34.78-.34.63,0,.97.49.97,1.25,0,.83-.5,1.33-1.06,1.33-.23,0-.46-.11-.68-.28v.43Zm.6-.5c.4,0,.7-.37.7-.98,0-.54-.18-.91-.65-.91-.21,0-.42.12-.66.33v1.29c.22.19.44.26.6.26Z"/>
              <path class="cls-8" d="m132.69,233.89c.21.17.43.29.72.29.32,0,.49-.17.49-.38,0-.25-.29-.36-.56-.47-.35-.13-.73-.29-.73-.71s.31-.7.84-.7c.31,0,.58.13.76.28l-.2.26c-.17-.13-.34-.22-.56-.22-.31,0-.45.17-.45.35,0,.23.27.32.55.43.35.13.75.28.75.74,0,.4-.32.73-.9.73-.35,0-.68-.15-.92-.34l.21-.28Z"/>
              <path class="cls-8" d="m135.6,233.87c.16,0,.3.13.3.32,0,.18-.14.31-.3.31s-.3-.13-.3-.31c0-.19.14-.32.3-.32Z"/>
              <path class="cls-8" d="m137.37,233.87c.16,0,.3.13.3.32,0,.18-.14.31-.3.31s-.3-.13-.3-.31c0-.19.14-.32.3-.32Z"/>
            </g>
          </g>
        </g>
        <g>
          <g>
            <g>
              <path class="cls-16" d="m101.55,370.49s-2.26-2.12-.74-10.14c1.52-8.02,5.38-15.73,3.48-24.43-1.89-8.71-16.73-30.65-16.77-32.11-.05-1.46-4.58,25.53,3.09,36.17,7.67,10.63,8.59,14.32,8.25,19.92-.34,5.59.08,10.1.92,11.4l1.77-.79Z"/>
              <path class="cls-15" d="m100.14,354.36c-.89,3.58-1.43,12.55,0,14.7.13.2.32.09.56-.28-.43-1.48-.72-4.08.1-8.42,1.52-8.02,5.38-15.73,3.48-24.43-1.89-8.71-16.73-30.65-16.77-32.11,0,0,2.24,18.29,9.76,30.87,5.39,9.01,3.76,16.1,2.87,19.68Z"/>
            </g>
            <g>
              <path class="cls-16" d="m104.25,369.94s-4.36-10.88,3.03-20.3c7.39-9.42,19.2-21.52,19.43-26.31,0,0,3.04,22.75-6.58,29.19-9.61,6.44-16.35,7.47-14.69,17.38l-1.19.04Z"/>
              <path class="cls-15" d="m114.63,347.95c-10.72,7.8-11.59,16.79-9.93,20.96.13.32.37.52.7.63-1.44-9.56,5.25-10.65,14.74-17.01,9.61-6.44,6.58-29.19,6.58-29.19,0,0-1.36,16.82-12.08,24.62Z"/>
            </g>
            <g>
              <path class="cls-16" d="m97.08,370.18s1.4-5.76.65-11.98c-.74-6.22-7.24-9.72-13.31-16.29-3.12-3.38-4.05-21.25-2.11-22.91,0,0-10.72,12.99-9.06,22.5,1.65,9.51,19.14,15.69,20.76,20.29,1.62,4.6,1.48,8.45,1.48,8.45l1.59-.05Z"/>
              <g>
                <path class="cls-15" d="m78.69,324.11c-3.54,9.59.09,21.21,11.86,28.43,8.66,5.31,5.9,16.36,5.9,16.36l1.42-4.36c.13-1.88.14-4.08-.13-6.34-.74-6.22-7.24-9.72-13.31-16.29-3.01-3.26-3.98-20-2.31-22.67-.49.62-1.88,2.42-3.43,4.87Z"/>
                <path class="cls-15" d="m82.12,319.24c.12-.15.19-.24.19-.24-.07.06-.13.14-.19.24Z"/>
              </g>
            </g>
            <g>
              <path class="cls-16" d="m106.49,369.46s2.51-9.32,8.73-10.58c6.21-1.25,13.35-10.44,13.73-12.24,0,0-1.05,17.31-22.46,22.81Z"/>
              <path class="cls-15" d="m114.86,361.97c-3.81,1.9-5.39,4.46-5.95,6.79,19.06-6.13,20.04-22.11,20.04-22.11-.08.36-.42,1.01-.97,1.82-1.87,3.28-6.4,10.13-13.12,13.5Z"/>
            </g>
          </g>
          <path class="cls-10" d="m119.94,366.03h-32.49l3.86,24.27c.29,1.84,1.88,3.2,3.74,3.2h17.29c1.86,0,3.45-1.35,3.74-3.2l3.86-24.27Z"/>
          <polygon class="cls-9" points="119.3 370.05 119.94 366.03 87.44 366.03 88.08 370.05 119.3 370.05"/>
          <path class="cls-9" d="m112.06,366.03l-3.86,24.27c-.29,1.84-1.88,3.2-3.74,3.2h7.87c1.86,0,3.45-1.35,3.74-3.2l3.86-24.27h-7.87Z"/>
        </g>
        <g>
          <rect class="cls-10" x="197.2" y="322.75" width="146.86" height="29.86"/>
          <rect class="cls-17" x="197.2" y="322.75" width="146.86" height="7.25"/>
          <polygon class="cls-7" points="209.97 322.75 223.38 322.75 219.78 330 206.37 330 209.97 322.75"/>
          <polygon class="cls-7" points="240.17 322.75 253.58 322.75 249.98 330 236.58 330 240.17 322.75"/>
          <polygon class="cls-7" points="270.37 322.75 283.77 322.75 280.18 330 266.78 330 270.37 322.75"/>
          <polygon class="cls-7" points="300.57 322.75 313.97 322.75 310.37 330 296.98 330 300.57 322.75"/>
          <polygon class="cls-7" points="344.07 322.75 344.07 322.95 340.57 330 327.18 330 330.77 322.75 344.07 322.75"/>
          <rect class="cls-16" x="215.48" y="352.61" width="10.35" height="40.83"/>
          <rect class="cls-15" x="223.49" y="352.61" width="2.35" height="40.83"/>
          <rect class="cls-16" x="316.24" y="352.61" width="10.35" height="40.83"/>
          <rect class="cls-15" x="323.53" y="352.61" width="3.06" height="40.83"/>
          <rect class="cls-15" x="215.48" y="352.58" width="10.35" height="5.14"/>
          <rect class="cls-15" x="316.24" y="352.58" width="10.35" height="5.14"/>
          <rect class="cls-16" x="215.48" y="318.08" width="10.35" height="4.64"/>
          <rect class="cls-15" x="223.49" y="318.08" width="2.35" height="4.64"/>
          <rect class="cls-16" x="316.24" y="318.08" width="10.35" height="4.64"/>
          <rect class="cls-15" x="323.53" y="318.08" width="3.06" height="4.64"/>
          <rect class="cls-15" x="215.48" y="322.14" width="10.35" height=".58"/>
          <rect class="cls-15" x="316.24" y="322.14" width="10.35" height=".58"/>
          <g>
            <polygon class="cls-14" points="223.38 322.75 208.56 352.61 197.2 352.61 197.2 348.49 209.97 322.75 223.38 322.75"/>
            <polygon class="cls-14" points="240.17 322.75 225.36 352.61 238.76 352.61 253.58 322.75 240.17 322.75"/>
            <polygon class="cls-14" points="283.77 322.75 268.96 352.61 255.56 352.61 270.37 322.75 283.77 322.75"/>
            <polygon class="cls-14" points="313.97 322.75 299.16 352.61 285.76 352.61 300.57 322.75 313.97 322.75"/>
            <polygon class="cls-14" points="330.77 322.75 315.96 352.61 329.36 352.61 344.07 322.95 330.77 322.75"/>
          </g>
          <g>
            <polygon class="cls-3" points="223.38 322.75 219.78 330 206.37 330 209.97 322.75 223.38 322.75"/>
            <polygon class="cls-3" points="253.58 322.75 249.98 330 236.58 330 240.17 322.75 253.58 322.75"/>
            <polygon class="cls-3" points="283.77 322.75 280.18 330 266.78 330 270.37 322.75 283.77 322.75"/>
            <polygon class="cls-3" points="313.97 322.75 310.37 330 296.98 330 300.57 322.75 313.97 322.75"/>
            <polygon class="cls-3" points="344.07 322.95 340.57 330 327.18 330 330.77 322.75 344.07 322.95"/>
          </g>
          <rect class="cls-18" x="201.29" y="335.67" width="140.24" height="14.94"/>
          <circle class="cls-10" cx="220.39" cy="311.6" r="9.23" transform="translate(-47.19 39.45) rotate(-9.24)"/>
          <path class="cls-14" d="m224.57,311.6c0-2.31-1.87-4.18-4.18-4.18s-4.18,1.87-4.18,4.18,1.87,4.18,4.18,4.18,4.18-1.87,4.18-4.18Z"/>
          <circle class="cls-10" cx="321.35" cy="311.6" r="9.23" transform="translate(-45.88 55.67) rotate(-9.24)"/>
          <path class="cls-14" d="m325.53,311.6c0-2.31-1.87-4.18-4.18-4.18s-4.18,1.87-4.18,4.18,1.87,4.18,4.18,4.18,4.18-1.87,4.18-4.18Z"/>
        </g>
        <g>
          <path class="cls-10" d="m399.71,390.27h-46.77l7.15-17.34h0s2.88-7.01,2.88-7.01l.79-1.92,1.29-3.12.26-.64,2.88-7,.53-1.27,5.1-12.38c.92-2.23,4.08-2.23,5,0l5.1,12.38.53,1.27,2.88,7,.26.64,1.29,3.12.79,1.92,2.88,7h0s7.15,17.35,7.15,17.35Z"/>
          <polygon class="cls-17" points="356 382.84 352.93 390.27 399.71 390.27 396.65 382.84 356 382.84"/>
          <rect class="cls-16" x="349.19" y="385.83" width="53.57" height="7.57"/>
          <rect class="cls-15" x="391.19" y="385.83" width="11.57" height="7.57"/>
          <g>
            <path class="cls-17" d="m397.87,385.83h-6.62l-5.31-12.89h0s-2.88-7.01-2.88-7.01l-.79-1.92-1.29-3.12-.26-.64-2.88-7-.53-1.27-4.29-10.42.8-1.96c.92-2.23,4.08-2.23,5,0l5.1,12.38.53,1.27,2.88,7,.26.64,1.29,3.12.79,1.92,2.88,7h0s5.31,12.9,5.31,12.9Z"/>
            <g>
              <polygon class="cls-14" points="387.32 360.25 365.31 360.25 368.19 353.25 384.45 353.25 387.32 360.25"/>
              <polygon class="cls-14" points="392.55 372.92 392.55 372.93 360.09 372.93 360.09 372.92 362.96 365.92 389.67 365.92 392.55 372.92"/>
              <polygon class="cls-3" points="387.32 360.25 380.71 360.25 377.83 353.25 384.45 353.25 387.32 360.25"/>
              <polygon class="cls-3" points="392.55 372.92 392.55 372.93 385.93 372.93 385.93 372.92 383.06 365.92 389.67 365.92 392.55 372.92"/>
            </g>
          </g>
        </g>
        <g>
          <path class="cls-13" d="m101.56,220.21c3.49,0,6.53-2.54,7.01-6,.08-.62.13-1.26.13-1.9,0-7.71-6.25-13.96-13.96-13.96-.32,0-.63.01-.94.03-.64-7.6-7.01-13.57-14.77-13.57-8.19,0-14.83,6.64-14.83,14.83,0,.36.02.72.04,1.08-2.32-1.3-5.03-1.99-7.91-1.86-7.45.34-13.57,6.3-14.1,13.74,0,.06,0,.12-.01.18-.24,4.04,3.03,7.44,7.08,7.44h52.26Z"/>
          <path class="cls-13" d="m434.69,231.17c11.04,0,11.65-16.61.62-17.15-.3-.01-.6-.02-.91-.02-1.97,0-3.86.31-5.64.88-1.48-8.99-9.28-15.85-18.69-15.85s-17.55,7.17-18.77,16.45c-2.28-1.09-4.84-1.71-7.54-1.71-1.51,0-2.97.19-4.37.55-9.65,2.49-7.63,16.85,2.34,16.85h52.95Z"/>
          <path class="cls-13" d="m302.14,149.32c11.03,0,11.65-16.61.62-17.14-.3-.01-.6-.02-.91-.02-1.97,0-3.86.31-5.64.88-1.48-8.99-9.28-15.85-18.68-15.85s-17.55,7.17-18.77,16.45c-2.28-1.09-4.84-1.71-7.53-1.71-1.51,0-2.97.19-4.37.55-9.65,2.48-7.62,16.84,2.34,16.84h52.93Z"/>
          <circle class="cls-10" cx="126.45" cy="153.56" r="26.45"/>
          <path class="cls-9" d="m126.66,127.11c7.19,4.73,11.95,12.87,11.95,22.12,0,14.61-11.84,26.45-26.45,26.45-.07,0-.14,0-.22,0,4.17,2.74,9.15,4.34,14.51,4.34,14.61,0,26.45-11.84,26.45-26.45s-11.73-26.33-26.24-26.45Z"/>
        </g>
      </g>
    </g>
  </g>
</svg>