<?xml version="1.0" encoding="UTF-8"?>
<svg xmlns="http://www.w3.org/2000/svg" id="Layer_1" data-name="Layer 1" viewBox="0 0 24 24" fill="#31AFA9">
  <path d="m7.982,19.299c-.061.223-.262.369-.482.369C3,18.5,0,14.502,0,10,0,4.486,4.486,0,10,0c4.949,0,9.103,3.542,9.876,8.422.043.272-.144.529-.416.572-.268.041-.528-.142-.572-.416-.695-4.391-4.434-7.578-8.888-7.578C5.037,1,1,5.038,1,10c0,4.052,2.727,7.623,6.631,8.686.267.072.424.348.352.613Zm16.018-1.799v4c0,1.379-1.121,2.5-2.5,2.5h-6.879c-1.9,0-3.55-1.353-3.923-3.216l-.63-2.154c-.187-.926.04-1.833.612-2.531h0c.572-.698,1.418-1.099,2.32-1.099h3.183l-.58-3.265c-.008-.065-.019-.556-.007-.598.121-.444.402-.794.792-.985.393-.193.848-.199,1.28-.02.255.106.503.368.682.719l2.193,4.148h.956c1.379,0,2.5,1.121,2.5,2.5Zm-3.958-1.637c-.159-.092-.292-.226-.382-.395l-2.197-4.155c-.103-.203-.196-.266-.197-.266-.143-.059-.305-.061-.438.003-.11.054-.195.154-.246.285l.014.291.572,3.2c.053.291-.026.589-.217.816-.193.229-.472.358-.768.358h-3.183c-.602,0-1.165.267-1.547.732s-.533,1.071-.415,1.66l.63,2.154c.289,1.438,1.527,2.453,2.952,2.453h5.382l.039-7.137Zm2.958,1.637c0-.827-.673-1.5-1.5-1.5h-.459l-.038,7h.497c.827,0,1.5-.673,1.5-1.5v-4Zm-7.955-10c.196-.194.198-.511.004-.707-.193-.197-.51-.198-.707-.004l-4.34,4.294c-.559.553-1.466.552-2.022,0l-2.128-2.103c-.197-.195-.514-.191-.707.004-.194.197-.192.513.004.707l2.128,2.103c.473.467,1.093.701,1.714.701s1.242-.234,1.715-.702l4.34-4.294Z"/>
</svg>
