<?xml version="1.0" standalone="no"?>
<!DOCTYPE svg PUBLIC "-//W3C//DTD SVG 1.1//EN" "http://www.w3.org/Graphics/SVG/1.1/DTD/svg11.dtd">
<svg xmlns="http://www.w3.org/2000/svg" width="468.89898681640625" height="143.8040008544922" viewBox="0 0 468.899 143.804">
  <g id="Group_11115" data-name="Group 11115" transform="translate(-74 -60.836)">
    <path id="Path_1" data-name="Path 1" d="M66.123.983V42.634H18.885V.983H0V105.808H18.885V60.15H66.123v45.657H85.008V.983Z" transform="translate(74 67.011)" fill="#1d1d1b"/>
    <path id="Path_2" data-name="Path 2" d="M93.478,62.353,77.848,56l-1.514,2.964c-3.464,6.759-11.9,11.3-20.985,11.3-11.782,0-20.833-6.817-23.615-17.348H89.776l.333-3.27a44.817,44.817,0,0,0,.167-4.566C89.971,21.124,74.349,4.4,52.3,4.4c-22.905,0-39.521,17.064-39.521,40.581,0,24.4,17.847,42.1,42.441,42.1,16.818,0,31.637-8.572,36.868-21.347ZM52.154,21.371c9.978,0,16.731,5.4,18.97,15H32.067c2.87-9.235,10.4-15,20.086-15" transform="translate(153.814 88.494)" fill="#1d1d1b"/>
    <path id="Path_3" data-name="Path 3" d="M85.581,4.782v46.67A18.981,18.981,0,0,1,66.4,70.643c-9.869,0-15.992-6.773-15.992-17.669V4.782H32.59V52.974c0,20.312,13.384,34.5,32.557,34.5a32.592,32.592,0,0,0,20.347-7C84.1,90.984,76.357,96.927,63.749,96.927c-10.492,0-19.159-4.785-23.195-12.8l-1.848-3.671L23.634,90.605,25.04,93.46c6.217,12.709,20.8,20.3,38.984,20.3,24.376,0,39.521-14.122,39.521-36.852l-.152-72.124Z" transform="translate(221.62 90.882)" fill="#1d1d1b"/>
    <path id="Path_4" data-name="Path 4" d="M76.68,4.235a41.314,41.314,0,1,0,41.078,41.317A41.243,41.243,0,0,0,76.68,4.235m0,65.089c-13.884,0-22.5-9.082-22.5-23.706S62.8,21.911,76.68,21.911s22.507,9.082,22.507,23.706S90.564,69.324,76.68,69.324" transform="translate(296.42 87.445)" fill="#1d1d1b"/>
    <path id="Path_5" data-name="Path 5" d="M89.981,0a42.486,42.486,0,1,0,42.274,42.489A42.429,42.429,0,0,0,89.981,0M66.757,42.489c0-15.076,8.906-24.442,23.224-24.442S113.2,27.413,113.2,42.489s-8.9,24.442-23.224,24.442S66.757,57.565,66.757,42.489" transform="translate(371.983 60.836)" fill="#1d1d1b"/>
    <path id="Path_6" data-name="Path 6" d="M53.541,87.3V65.456A59.414,59.414,0,0,0,112.735,5.968h21.738c0,44.849-36.31,81.337-80.932,81.337" transform="translate(408.426 98.333)" fill="#fc6c37"/>
  </g>
</svg>