<?xml version="1.0" encoding="UTF-8"?>
<svg id="Layer_1" data-name="Layer 1" xmlns="http://www.w3.org/2000/svg" viewBox="0 0 557.59 525.13">
  <defs>
    <style>
      .cls-1 {
        fill: #cdcfce;
        stroke: #fdfeff;
        stroke-miterlimit: 10;
      }
    </style>
  </defs>
  <path class="cls-1" d="m221.56,109.33c2.85.34,5.4.2,7.2,2.9,2.25,3.38,2.2,5.29,1.43,8.95-3.47-.04-4.08.05-7.13-1.89-1.91-3.57-1.75-5.98-1.5-9.96Z"/>
  <path class="cls-1" d="m475.16,196.2l2.6.32c2.76,2.03,2.77,1.8,3.38,5.14-1.68,2.8-4.18,3.45-7.05,4.91l-2.32-.16c-2.11-1.54-2.09-1.77-2.9-4.28,1-3.03,3.75-4.28,6.29-5.93Z"/>
  <path class="cls-1" d="m450.02,213.45l2.04,1.81c.61,2.62.72,2.78-.34,5.23-2.68,2.12-5.76,2.65-8.99,3.48-2.26-2.09-2.31-2.35-2.99-5.37,2.45-3.13,6.64-3.92,10.28-5.16Z"/>
  <path class="cls-1" d="m377.73,120.91c2.13,2.63,3.16,3.65,2.51,7.33-.64,3.69-2.76,5.79-5.67,7.88-3.07-3.73-3.39-4.04-3.64-8.82,1.37-3.33,3.85-4.52,6.8-6.39Z"/>
  <path class="cls-1" d="m384.88,391.56c3.74,1.19,4.51,1.66,7.21,4.5,1.15,4.38.78,5.33-.53,9.74l-3.7-.33c-1.96-1.08-2.68-2.53-3.55-4.52-1.72-3.93-.9-5.65.58-9.39Z"/>
  <path class="cls-1" d="m421.27,228.4c1.62.51,2.45.91,3.8,2.01,1.66,1.36,1.2,1.72,1.37,3.73-2.13,2.89-5.2,4.08-8.33,5.65l-2.95-1.01c-2.05-2.46-1.89-2.36-1.73-5.57,2.15-2.5,4.91-3.48,7.84-4.8Z"/>
  <path class="cls-1" d="m197.39,342.14l2.67.19c1.62,2.03,1.76,2.28,1.39,5.02-.55,4.06-4.12,6.36-7.13,8.7-2.49-1.89-3.03-2.15-4.19-5.18.75-4.42,3.94-5.93,7.26-8.72Z"/>
  <path class="cls-1" d="m173.39,289.55c4.89.05,7.7.26,11.54,3.5.74,3.25.13,4.41-.81,7.55-4.04-.86-7.95-1.99-11.36-4.35-.93-3.23-.49-3.64.63-6.69Z"/>
  <path class="cls-1" d="m390.03,351.36l4.89.35c3.09.74,4.2,2.4,5.96,4.8.55,3.71.56,3.77-1.29,7.03-3.9-1.43-7.15-2.97-10.64-5.25-.84-2.99.04-4.08,1.08-6.94Z"/>
  <path class="cls-1" d="m373.98,365.59l4.94.35c2.13.7,3.47,2.61,4.07,4.69,1.11,3.89-.56,7.5-2.16,10.95-3.1-1.43-4.44-3.7-6.1-6.72-2.19-3.97-1.82-5.11-.75-9.28Z"/>
  <path class="cls-1" d="m143.9,134.69c4.3.74,7.09,3.62,9.76,7.11,2.48,3.24,2.2,4.65,1.81,8.44l-3.89.08c-2.88-1.34-5.07-4.41-6.79-7.01-2.28-3.45-1.64-4.82-.89-8.61Z"/>
  <path class="cls-1" d="m232.72,131.98l4.05.39c2.49,1.46,4.1,3.49,5.08,6.22,1.42,3.98.66,5.36-.91,9.01-1.13-.21-2.15-.34-3.23-.8-2.66-1.12-4.45-4.16-5.46-6.76-1.4-3.62-.9-4.73.47-8.07Z"/>
  <path class="cls-1" d="m97.18,288.93l4.63-.15c4.16.05,6.39.81,9.2,3.72.17,3.05.13,2.85-1.85,5.2l-12.02-.83c-2.33-1.97-2.37-1.85-2.82-4.84l2.86-3.1Z"/>
  <path class="cls-1" d="m112.85,260.25c6.57.02,12.08-.34,17.12,4.48l.1,5.35c-4.48-.49-12.31-.43-15.83-3.23-1.61-1.28-1.22-4.62-1.38-6.6Z"/>
  <path class="cls-1" d="m446.44,175.43c1.43.25,2.19.71,3.44,1.4,1.39,2.55,1.13,2.71.59,5.61-2.83,3.22-5.73,5.38-9.32,7.69-2.35-.02-2.76-.2-4.8-1.39l-.56-2.15c1.87-4.94,6.56-8.15,10.66-11.17Z"/>
  <path class="cls-1" d="m244.18,153.58l2.22,1.01c2.31,3.38,4.9,7.56,5.72,11.6.61,3.04-.79,4.21-2.32,6.69l-3.61-1.06c-2.76-3.04-5.38-9.27-5.3-13.44.04-2.21,1.82-3.26,3.29-4.8Z"/>
  <path class="cls-1" d="m260.35,57.64c2.72.32,3.83.22,6.07,1.87,2.4,6.26,2.14,10.35-.18,16.63-3.13-.14-3.37.02-5.72-1.98-2.01-5.51-2.07-10.97-.18-16.52Z"/>
  <path class="cls-1" d="m358.15,169.61c2.6.07,3.71.26,5.87,1.74l.23,3.01c-2.34,4.79-4.98,7.86-8.68,11.6l-.23.07c-2.73.34-2.76.27-4.94-1.32l-.27-2.35c2.31-4.73,4.73-8.62,8.02-12.75Z"/>
  <path class="cls-1" d="m440.6,305.71l10.19.52c4.34.54,7.29,1.11,10.01,4.62l-.67,4.12c-5.63.1-11.72-.63-17.2-1.85-2.84-2.88-2.26-3.51-2.33-7.41Z"/>
  <path class="cls-1" d="m406.87,296.15c5.81.05,11.78-.57,16.52,3.15,1.11,2.95,1.31,2.76.04,5.6-5.61.91-12.28,1.97-17.2-1.11-.75-3.1-.3-4.73.65-7.64Z"/>
  <path class="cls-1" d="m172.75,357.19c3.01.5,3.05,1.26,4.9,3.56-1.14,4.99-9.24,9.58-13.35,12.19-.73.02-1.67.08-2.37-.14-2.26-.69-2.91-1.75-4.1-3.58,1.59-5.17,10.46-9.38,14.92-12.04Z"/>
  <path class="cls-1" d="m213.45,369.11l2.62.66c1.02,1.16,2.6,2.2,2.53,3.85-.21,4.65-6.31,13.09-9.65,16.45-.71-.08-1.72-.15-2.37-.43-2.1-.92-2.45-2.01-3.26-3.95.95-6.02,6.41-11.88,10.13-16.59Z"/>
  <path class="cls-1" d="m408.67,378.73l4.6.39c3.75,2.63,9.42,8.71,11.24,12.88,1.07,2.47-.12,4.18-.96,6.53l-4.16-.67c-4.03-3.74-8.75-8.38-11.24-13.34-1.23-2.46-.35-3.4.51-5.79Z"/>
  <path class="cls-1" d="m156.97,186.36c5.77,2.13,11.39,9.02,14.85,14.01.5,3.77.04,3.7-2.08,6.65-1.46-.41-3.13-.92-4.42-1.73-3.21-2.01-10.2-10.53-10.98-14.22-.37-1.72,1.61-3.39,2.63-4.71Z"/>
  <path class="cls-1" d="m191.92,201.46c1.06.29,2.24.48,3.23.97,3.8,1.9,12.73,10.82,13.84,15.05.45,1.69-1.67,3.66-2.64,5.02l-2.02-.7c-2.94-1.55-13.68-12.14-14.53-15.17-.54-1.91,1.13-3.53,2.13-5.17Z"/>
  <path class="cls-1" d="m164.63,160.06c6.25,2.04,10.41,7.99,13.73,13.42,2.22,3.64,2.48,4.19,1.5,8.36l-4.27.71c-1.18-.8-1.92-1.54-2.78-2.68-2.42-3.23-8.59-10.24-8.98-13.97-.17-1.58.58-4.18.8-5.83Z"/>
  <path class="cls-1" d="m310.5,88.59c2.79,1.7,3.22,1.91,4.65,4.82-.21,4.27.34,12.26-1.62,16-.52.99-2.7,2.57-3.58,3.42l-.62-.5c-2.33-2.05-4.26-3.33-4.25-6.68.01-3.12.6-11.17,2.01-13.65.61-1.07,2.49-2.48,3.42-3.4Z"/>
  <path class="cls-1" d="m130.08,288.57l9.91.1c5.25.19,12.13.07,15.93,4.15l-.16,4.21c-6.16,1.35-17.38.19-23.49-1.56-2.71-2.62-2.13-3.26-2.2-6.9Z"/>
  <path class="cls-1" d="m301.64,131.91l3.75,1.98c.66.92,1.27,1.67,1.45,2.82,1.02,6.65,1.11,18.36-3.29,23.41l-1.51-1.07c-2.8-2.42-2.68-4.24-3-7.75-.6-6.55-1.84-14.05,2.59-19.39Z"/>
  <path class="cls-1" d="m158.53,264.87c7.45,1.5,18.44,2.63,24.59,6.89,1.38,3.6,1.1,4.1.28,7.7-8.33-2.2-17.48-3.91-25.33-7.48-1.46-2.92-.45-4.06.47-7.11Z"/>
  <path class="cls-1" d="m408.05,212.21l1.16.38c2.48,1.37,2.66,2.05,3.12,4.6-4.41,6.57-13.39,12.18-18.86,18.35l-1.09,1.24-3.3-1.98c-1.36-2.47-1.4-2.59-1.04-5.38,4.71-6.57,13.08-13.13,20.02-17.22Z"/>
  <path class="cls-1" d="m264.41,85.79l2.53.66c2.04.87,2.63,1.95,3.38,3.98,2.73,7.41,4.15,19.26,1.15,26.71l-4.58-.39c-.89-.92-1.58-1.75-1.94-3.01-1.86-6.45-3.57-21.99-.54-27.95Z"/>
  <path class="cls-1" d="m170.55,385.26c.76.01,1.46-.02,2.21.23,2.1.72,3.13,2.16,4.21,3.97-.56,3.58-3.16,6.14-5.15,9.04l-8.82,13.29-3.12-.21c-2.6-1.79-2.69-1.69-3.52-4.71,2.59-7.83,8.9-15.37,14.19-21.62Z"/>
  <path class="cls-1" d="m268.24,131.61c.81.14,2.18.34,2.89.71,1.99,1.04,2.67,2.9,3.14,4.95,1.85,7.92,3.07,30.79-.62,37.31-2.65-1.13-3.84-1.8-5.73-4.11-1.74-5-.65-9.56-.75-14.71-.17-8.36-1.85-16.07,1.07-24.15Z"/>
  <path class="cls-1" d="m482.12,248.57c1.11-.19.56-.13,1.97-.15,3.88-.06,3.75-.31,6.66,2.49,1.19,3.23,1.37,4.32.43,7.63-5.6,5.63-17.46,6.4-25.1,7.78l-62.93,9.74-.17.04c-4.17.32-4.7.73-7.96-2.09-.98-3.66-.99-4.54-.1-8.22.88-.88,1.65-1.66,2.82-2.15,8.99-3.72,22.09-4.15,31.79-5.76l52.59-9.31Z"/>
  <path class="cls-1" d="m182.81,314.42c1.04-.13,1.54-.23,2.66-.17,2.66.16,4.4.99,5.94,3.2,1.56,2.25,1.09,5.07.58,7.53-6.69,5.84-21.22,8.08-29.77,10.8l-61.19,19.19c-2.43.51-4.88.4-7.34.41-2.23-1.71-3.29-2.01-3.59-4.99-.27-2.7.31-5.42,1.93-7.55,3.36-4.4,80.11-26.73,90.77-28.43Z"/>
  <path class="cls-1" d="m390.07,320.33c2.64.02,5.3.11,7.83.9,12.44,3.89,24.71,10.11,36.87,14.89l51.81,20.92c6.97,3.03,14.81,5.8,21.33,9.65,2.57,1.52,3.43,2.41,4.75,5.03-.17,3.39-1.16,5.42-2.74,8.39l-3.3-.18c-6.7-.83-13.78-4.27-20.01-6.84l-40.38-17.47c-16.84-7.1-35.5-13.31-51.51-21.99-2.63-1.43-4.59-2.66-6.38-5.06-.5-4.01.07-4.69,1.74-8.24Z"/>
  <path class="cls-1" d="m79.89,192.49c10.7,2.57,21.16,7.58,31.35,11.73l52.62,22c8.6,3.71,19.09,6.39,26.65,12.01,2.73,2.03,3.7,3.8,4.23,7.21-.96,3.19-2.25,4.14-4.81,6-22.67-7.13-45.14-17.47-67.24-26.3l-30.6-12.19c-5.49-2.24-11.43-4.18-16.35-7.52-.4-1.27-1.02-2.86-1.04-4.24-.06-4.37,2.32-5.89,5.19-8.7Z"/>
  <path class="cls-1" d="m452.41,103.23c2.89-.19,4.06-.11,6.73,1.28,1.46,2.17,2.1,2.77,2.18,5.37.07,2.04,0,3.68-1.13,5.48-7.72,12.31-18.55,23.81-27.5,35.31-18.65,23.95-36.45,48.48-56.98,70.9-2.45.33-3.91-.24-6.2-1-2.02-2.53-2.76-3.78-2.32-7.14.32-2.46,2.04-5.15,3.42-7.15,4.65-6.79,10.55-12.88,15.57-19.41l36.87-47.61,16.63-21.86c3.85-5.06,7.41-10.56,12.74-14.17Z"/>
  <path class="cls-1" d="m360.48,25.88l5.26.36c2.16,1.28,3.95,2.29,4.81,4.86,2.16,6.42-24.43,90.92-29.22,106.98-3.11,10.43-5.65,21.33-9.31,31.56-1.09,3.06-2.8,5.85-4.52,8.58-.98.16-2.61.55-3.65.4-2.53-.36-3.86-2.02-5.47-3.78-1.13-6.8,3.97-18.76,5.86-25.77l20.63-73.53c3.71-13.2,6.48-27.17,10.98-40.08,1.2-3.43,2.72-6.5,4.63-9.58Z"/>
  <path class="cls-1" d="m157.97,58.66c2.03.16,3.98.32,5.85,1.18,1.48.67,2.77,2.16,3.69,3.44,6.85,9.54,12.25,21.8,18.13,32.08l35.63,63.46c6.18,11.42,13.49,22.81,17.29,35.3-1.05,3.23-2.71,5.16-4.91,7.7-1.92-.56-4.11-1.17-5.68-2.47-5.68-4.68-73.94-126.3-74.39-132.31-.29-3.8,2.02-5.85,4.4-8.4Z"/>
  <path class="cls-1" d="m347.16,407.69c-.43-7.57-5.7-12.3-11.05-16.89,21.17-34.1,48.94-75.01,42.43-117.13l-.26-1.78c-3.62-23.05-18.17-46.77-37.1-60.39-16.67-12-41.02-16.83-61.13-14.68-24.65,3.15-45.69,13.66-61.17,33.61-12.8,16.5-16.32,37.52-13.64,57.91,2.45,18.44,11.4,35.6,20.25,51.69l29.65,49.52c-5.55,4.14-11.32,8.23-12.5,15.58-.6,3.7.74,7.6,3.01,10.52,1.82,2.32,4.42,4.25,6.7,6.11-3.9,4.32-8.84,8.54-8.76,14.76,1.24,3.3,3.55,4.98,6.63,6.52l1.22.55c1.05,7.15,1.27,14.13,7.65,18.92l2.37,1.5.09,1.05c.66,7.07,3.78,12.41,9.33,16.83,8.51,6.77,20.69,7.99,31.21,7.73,9.6-1.95,18.17-4.66,23.93-13.33,2.63-3.98,3.28-7.67,4.52-12.12,1.43-5.12,9.51-9.49,11.95-15.41l.55-1.29c1.89-4.85,1.89-10.44,2.19-15.59-2.01-2.85-3.92-5.76-6.35-8.28,4.68-4.97,8.7-8.55,8.28-15.91Zm-35.06,61.03l-.77.5-1.33.77c-6.8,4.06-16.1,3.5-23.62,1.64-5.79-1.44-7-3.14-10.01-8.04,12.68.73,24.38,1.36,37.13.42l.92,1.23-2.32,3.48Zm14.17-20.92l-.86.21c-14.2,2.97-30.65,2.42-45.11,1.92-3.78-.13-9.75.37-12.94-1.64l-.77-7.19,44.55.97c2.84,0,13.58-1.31,15.54-.44.56.25.96.79,1.45,1.17l-1.86,5Zm-59.67-25.02l56.78,1.68,1.09,2.34-56.62-.26-1.25-3.76Zm20.04-14.65c-6.75-.06-19.77,1.39-25.68-1.93l.55-2.34c16.78-1.71,35.19-.41,52.12,0,4.15.1,12.64-.8,16.1,1.49l.32,2.92-43.41-.14Zm-.64-89.82c5.27-2.26,9.94-4.45,14.43-8.06l1.07-.87,5.3,5.37-3.63,40.35-1.47,23.42c-.19,3,.11,6.25-1.5,8.79l-7.71.33-6.49-69.33Zm44.95,50.64c-3.11,5.1-6.21,11.33-10.08,15.83-1.67,1.94-2.11,1.75-4.55,1.93-2.28-4.2,5.05-65.16,5.79-73.45,2.91-1.37,6.09-2.72,8.56-4.81,2.91-2.46,4.46-6.51,4.34-10.3-.09-3.13-1.55-4.32-3.67-6.35-1.08-.07-2.25-.6-3.26-.19-1.64.68-6.86,7.5-8.99,9.1-2.78.49-5.41,1.41-7.95-.41l-8.88-8.91c-2.07-.83-2.18-1.03-4.3-.41l-3.26,5.26c-3.46,5.21-6.03,8.01-12.27,9.33-4.5-.97-7.09-4.88-10.82-7.58-2.92-.3-2.95-.06-5.43,1.57-.78,1.59-1.58,3.04-1.56,4.87.03,4.48,2.21,7.24,5.29,10.24l.75.74,5.12,47.22c.73,7.52,2.44,16.18,1.59,23.68-2.81,1.09-4.06,1.22-7.04.79-7.97-10.71-14.69-23.14-21.33-34.76-11.25-19.66-25.74-41.93-28.98-64.55l-.51-3.68c-1.65-14.88,2.96-31.2,12.37-42.91,14.01-17.44,32.26-24.95,53.98-27.42,5.89-.32,11.56-.27,17.4.74,17.95,3.15,32.72,12.86,43.16,27.78,10.66,15.22,18.25,39.07,14.54,57.72-4.84,24.28-17.17,47.97-30.01,68.93Z"/>
</svg>