<svg id="chart-histogram" xmlns="http://www.w3.org/2000/svg" width="38.573" height="38.573" viewBox="0 0 38.573 38.573">
  <path id="Path_5767" data-name="Path 5767" d="M36.966,35.359H8.036a4.822,4.822,0,0,1-4.822-4.822V1.607A1.607,1.607,0,1,0,0,1.607v28.93a8.046,8.046,0,0,0,8.036,8.036h28.93a1.607,1.607,0,0,0,0-3.214Z" transform="translate(0 0)" fill="#fff"/>
  <path id="Path_5768" data-name="Path 5768" d="M6.607,25.465a1.607,1.607,0,0,0,1.607-1.607V12.607a1.607,1.607,0,0,0-3.214,0v11.25A1.607,1.607,0,0,0,6.607,25.465Z" transform="translate(3.036 6.679)" fill="#fff"/>
  <path id="Path_5769" data-name="Path 5769" d="M10,10.607V25.072a1.607,1.607,0,1,0,3.214,0V10.607a1.607,1.607,0,1,0-3.214,0Z" transform="translate(6.072 5.465)" fill="#fff"/>
  <path id="Path_5770" data-name="Path 5770" d="M15,13.607V23.25a1.607,1.607,0,1,0,3.214,0V13.607a1.607,1.607,0,0,0-3.214,0Z" transform="translate(9.108 7.287)" fill="#fff"/>
  <path id="Path_5771" data-name="Path 5771" d="M20,9.607V25.679a1.607,1.607,0,1,0,3.214,0V9.607a1.607,1.607,0,1,0-3.214,0Z" transform="translate(12.144 4.858)" fill="#fff"/>
  <path id="Path_5772" data-name="Path 5772" d="M6.607,14.465a1.607,1.607,0,0,0,1.136-.471l5.764-5.764a1.647,1.647,0,0,1,2.273,0l3.491,3.491a4.822,4.822,0,0,0,6.818,0l8.978-8.978A1.607,1.607,0,1,0,32.793.471L23.816,9.447a1.607,1.607,0,0,1-2.273,0L18.052,5.958a4.822,4.822,0,0,0-6.818,0L5.471,11.721a1.607,1.607,0,0,0,1.136,2.744Z" transform="translate(3.036 0)" fill="#fff"/>
</svg>
