<svg xmlns="http://www.w3.org/2000/svg" width="40" height="40" viewBox="0 0 40 40">
  <path id="hastag" d="M38.333,11.667H30.318l1.333-9.775a1.667,1.667,0,0,0-3.3-.45L26.955,11.667H15.318l1.333-9.775a1.667,1.667,0,0,0-3.3-.45L11.955,11.667H3.333a1.667,1.667,0,1,0,0,3.333H11.5L10.137,25H1.667a1.667,1.667,0,1,0,0,3.333H9.682L8.348,38.108a1.667,1.667,0,0,0,3.3.45l1.393-10.225H24.682l-1.333,9.775a1.667,1.667,0,0,0,3.3.45l1.393-10.225h8.622a1.667,1.667,0,1,0,0-3.333H28.5l1.363-10h8.47a1.667,1.667,0,1,0,0-3.333ZM25.137,25H13.5l1.363-10H26.5Z" transform="translate(0 0)" fill="#fff"/>
</svg>
