<svg xmlns="http://www.w3.org/2000/svg" width="40" height="40" viewBox="0 0 40 40">
  <path id="journal-alt" d="M25,4.61V1.667a1.667,1.667,0,0,0-3.333,0V3.333H18.333V1.667a1.667,1.667,0,1,0-3.333,0V3.333H11.667V1.667a1.667,1.667,0,1,0-3.333,0V3.333H5V1.667a1.667,1.667,0,1,0-3.333,0V4.61A4.99,4.99,0,0,0,0,8.333V31.667A8.343,8.343,0,0,0,8.333,40h10a8.343,8.343,0,0,0,8.333-8.333V8.333A4.993,4.993,0,0,0,25,4.61ZM23.333,31.667a5.006,5.006,0,0,1-5,5h-10a5.006,5.006,0,0,1-5-5V8.333A1.668,1.668,0,0,1,5,6.667H21.667a1.668,1.668,0,0,1,1.667,1.667ZM20,13.333A1.666,1.666,0,0,1,18.333,15h-10a1.667,1.667,0,1,1,0-3.333h10A1.666,1.666,0,0,1,20,13.333ZM20,20a1.666,1.666,0,0,1-1.667,1.667h-10a1.667,1.667,0,1,1,0-3.333h10A1.666,1.666,0,0,1,20,20Zm-5,6.667a1.666,1.666,0,0,1-1.667,1.667h-5a1.667,1.667,0,1,1,0-3.333h5A1.666,1.666,0,0,1,15,26.667ZM35,0a5.006,5.006,0,0,0-5,5V32.93a6.7,6.7,0,0,0,1.953,4.713l1.868,1.868a1.666,1.666,0,0,0,2.357,0l1.868-1.868A6.7,6.7,0,0,0,40,32.93V5a5.006,5.006,0,0,0-5-5Zm1.667,32.93a3.351,3.351,0,0,1-.977,2.357l-.69.69-.69-.69a3.351,3.351,0,0,1-.977-2.357V5a1.667,1.667,0,1,1,3.333,0Z" fill="#fff"/>
</svg>
