<?xml version="1.0" encoding="UTF-8"?>
<svg id="Layer_1" data-name="Layer 1" xmlns="http://www.w3.org/2000/svg" viewBox="0 0 2800 1700">
  <defs>
    <style>
      .cls-1 {
        fill: #fff;
      }
    </style>
  </defs>
  <rect class="cls-1" width="2800" height="1700"/>
  <path style="fill: #31AFA9;" d="m1118.9,1141.43c18.06,3.94,16.92-4.79,11.25-8.05-58.2-35.69-90.65-88.75-97.65-159.22,110.15-32.91,165.34-98.93,165.34-198.48,0-60.92-20.35-112.51-60.92-154.55-40.54-42.04-90.42-63.04-149.24-63.04s-108.88,21-147.32,63.04c-38.64,42.04-57.94,96.18-57.94,161.97,0,83,32.06,159.22,96.15,228.84,64.12,69.65,144.14,112.93,240.32,129.49h0Z"/>
  <path style="fill: #31AFA9;" d="m630.55,1141.43c18.08,3.94,16.92-4.79,11.25-8.05-58.17-35.69-90.65-88.75-97.65-159.22,110.15-32.91,165.37-98.93,165.37-198.48,0-60.92-20.38-112.51-60.95-154.55-40.54-42.04-90.42-63.04-149.22-63.04s-108.91,21-147.34,63.04c-38.61,42.04-57.94,96.18-57.94,161.97,0,83,32.06,159.22,96.15,228.84,64.12,69.65,144.17,112.93,240.32,129.49h0Z"/>
</svg>