<?xml version="1.0" encoding="UTF-8"?>
<svg id="Layer_1" data-name="Layer 1" xmlns="http://www.w3.org/2000/svg" viewBox="0 0 841.89 595.28">
  <defs>
    <style>
      .cls-1 {
        fill: #cdcfce;
        stroke: #fdfeff;
        stroke-miterlimit: 10;
      }
    </style>
  </defs>
  <g>
    <path class="cls-1" d="m527.69,381.74c-3.73-5.14-9.4-9.02-15.79-9.88-2.72-.37-5.65-.08-8.38.25-6.3,2.46-11.91,5.31-14.71,11.87-2.65,6.23-1.89,13.4.69,19.51,2.19,5.17,5.99,9.4,11.36,11.29,4.52,1.57,9.31,1.59,13.96.41,6.32-2.7,12.48-6.8,15.21-13.42.42-1.03.62-2.04.83-3.11l.24-1.19c.94-5.1-.32-11.5-3.41-15.73Zm-18.94,22.8c-5.9,0-10.69-4.78-10.69-10.68s4.79-10.7,10.69-10.7,10.69,4.79,10.69,10.7-4.79,10.68-10.69,10.68Z"/>
    <path class="cls-1" d="m308.12,415.22c0,2.16-.53,3.64-1.41,4.92-2,2.9-5.46,4.44-8.98,4.32-1.57-.05-3.1-.43-4.47-1.48-2.74-2.09-4.13-5.75-4.17-9.11-.03-1.79,1.46-3.76,3.02-5.33,2.28-2.3,5.57-3.46,8.74-2.77,1.66.36,3.21,1.11,4.6,2.48,2.21,2.17,2.69,3.99,2.68,6.98Z"/>
    <path class="cls-1" d="m534.15,304.71s0,.08-.01.12c-.64,5.12-5.45,8.69-10.56,7.98-2.73-.38-5.36-1.23-7.43-3.2-1.23-1.17-1.87-2.32-2.25-3.57-.91-3.06.11-6.35,2.34-8.63.12-.12.24-.25.36-.36,2.54-2.49,6.11-3.78,9.59-3.08,1.71.35,3.28,1.1,4.83,2.64,2.05,2.06,3.46,5.17,3.13,8.1Z"/>
    <path class="cls-1" d="m446.88,178.92c-.1,1.02-.25,1.95-.46,2.83-1.86,7.67-11.59,10.26-16.59,4.16-.04-.04-.07-.09-.11-.13-1.96-2.45-2.63-5.72-1.91-8.78.33-1.43.86-2.58,1.55-3.57,2.54-3.64,7.33-4.89,11.51-3.41,1.57.56,3.08,1.32,3.98,2.35,1.67,1.89,2.27,4.09,2.03,6.56Z"/>
    <path class="cls-1" d="m436.77,440c-.13,1.09-.56,2.02-1.16,2.84-2.75,3.76-7.8,5.26-12.09,3.43-1.29-.55-2.56-1.39-3.93-2.6-2.98-2.63-3.68-5.48-3.6-9.32.06-2.61,1.53-4.48,3.28-6.17,1.37-1.32,3.15-2.13,5.05-2.27h0c3.8-.05,5.81,1.51,8.33,4.16,2.82,2.94,4.59,5.72,4.11,9.93Z"/>
    <path class="cls-1" d="m478.34,460.57c-.07,2.27-.84,4.01-1.96,5.56-2.07,2.85-5.46,4.46-8.99,4.56l-1.06.03c-3.03-.22-6.11-2.59-7.7-5.1-1.33-2.08-1.98-6.23-1.3-8.7.44-1.58,1.24-2.62,2.25-3.48,1.9-1.62,4.3-2.54,6.78-2.83l.91-.11c3.4-.09,6.1.71,8.46,3.23,1.83,1.93,2.7,4.18,2.61,6.84Z"/>
    <path class="cls-1" d="m345.73,200.65c-1.49,3.27-3.8,5.29-6.61,6.83-2.71,1.49-5.87,2.11-8.87,1.38-.27-.06-.53-.14-.79-.23-3.49-1.16-6.86-4.91-8.15-8.25-1.42-3.68-1-7.5.78-10.99,2.15-4.22,5.72-5.88,10.08-7.15,1.95.08,4.13.17,6.02.67,3.15.84,6.24,4.18,7.53,7.07,1.33,2.96,1.37,7.69.01,10.67Z"/>
    <path class="cls-1" d="m311.02,306.61c-.35-1.43-.71-2.25-.72-2.27-.13-.31-.27-.61-.43-.91-1.71-3.44-5.6-6.28-9.29-7.21-.88-.23-1.79-.35-2.73-.43-4.62-.34-9.26.8-13.24,3.19-2.85,1.71-5.18,3.93-6.83,7.58-.13.3-.26.6-.37.91-1.65,4.17-1.53,8.51-.55,12.49,3.26,13.2,21.34,11.44,23.99,9.93,8.15-4.66,12.42-14.15,10.17-23.28Zm-16.85,16.67c-4.97,0-8.99-4.02-8.99-8.98s4.02-8.99,8.99-8.99,8.99,4.02,8.99,8.99-4.03,8.98-8.99,8.98Z"/>
    <path class="cls-1" d="m527.69,381.74c-3.73-5.14-9.4-9.02-15.79-9.88-2.72-.37-5.65-.08-8.38.25-6.3,2.46-11.91,5.31-14.71,11.87-2.65,6.23-1.89,13.4.69,19.51,2.19,5.17,5.99,9.4,11.36,11.29,4.52,1.57,9.31,1.59,13.96.41,6.32-2.7,12.48-6.8,15.21-13.42.42-1.03.62-2.04.83-3.11l.24-1.19c.94-5.1-.32-11.5-3.41-15.73Zm-18.94,22.8c-5.9,0-10.69-4.78-10.69-10.68s4.79-10.7,10.69-10.7,10.69,4.79,10.69,10.7-4.79,10.68-10.69,10.68Z"/>
    <path class="cls-1" d="m296.33,235.42c-2.64-5.85-9.47-11.22-15.6-12.86-.4-.1-.81-.19-1.22-.28-5.3-1.09-10.88-.29-15.59,2.38-3.01,1.71-5.54,4.06-7.59,7.49-3.38,5.61-3.5,11.96-1.68,18.12,1.72,5.83,5.53,10.86,11.04,13.54,1.35.66,2.68,1.12,4.03,1.44,8.33,1.99,17.26-.62,22.96-7.02,1.55-1.76,2.86-3.75,3.84-6.01,2.11-4.89,2.01-11.93-.19-16.8Zm-20.22,20.24c-6.19,0-11.21-5.02-11.21-11.21s5.02-11.2,11.21-11.2,11.2,5.01,11.2,11.2-5.02,11.21-11.2,11.21Z"/>
    <path class="cls-1" d="m386.21,451.59c-1.59-5.83-5.15-11.25-10.59-14.11-.2-.1-.39-.2-.6-.29-.39-.19-.81-.36-1.23-.52-.22-.08-.42-.16-.64-.23-.57-.19-1.14-.35-1.72-.49-4.45-1.06-9.15-.57-13.43,1.15-.06.03-.12.05-.19.09-.3.11-.59.24-.88.38-.06,0-.1.04-.15.06-.33.15-.65.31-.98.5-.33.16-.65.33-.96.52-.19.1-.37.22-.54.32-.38.22-.74.47-1.1.72-.33.23-.64.47-.95.71-1.93,1.52-3.65,3.41-5.13,5.83-3.73,6.04-4.66,13.36-2.7,20.18,1.54,5.37,5.38,10.33,10.34,12.98.04.02.08.04.12.06.32.17.65.33.98.47.07.04.13.07.19.08,5.26,2.33,11.26,2.22,16.55-.05.39-.16.77-.34,1.15-.53.06-.04.14-.07.2-.11.77-.38,1.5-.81,2.21-1.27.2-.12.41-.27.61-.4l.78-.57c.39-.3.77-.61,1.14-.93.49-.43.95-.88,1.42-1.37.11-.13.24-.26.36-.41.19-.2.38-.42.57-.65.5-.59.99-1.23,1.46-1.92.41-.59.79-1.21,1.18-1.88,3.2-5.51,4.21-12.11,2.53-18.32Zm-20.99,17.12c-5.88,0-10.65-4.77-10.65-10.66s4.77-10.64,10.65-10.64,10.64,4.77,10.64,10.64-4.77,10.66-10.64,10.66Z"/>
    <path class="cls-1" d="m529.57,220.31c-2.04-6.44-6.78-11.9-12.96-14.64-.04-.02-.08-.04-.11-.05-.32-.14-.65-.27-.99-.39-5.19-1.94-10.96-1.62-16.07.59-.03,0-.05.02-.08.03-.6.27-1.2.55-1.77.84-.23.11-.45.23-.66.34-.17.1-.33.18-.49.28-.18.1-.36.2-.53.31-.29.17-.56.34-.84.52-.26.18-.52.36-.78.54-.78.56-1.52,1.16-2.23,1.84-.23.23-.46.45-.69.69-.58.61-1.14,1.28-1.66,2-.12.14-.22.3-.32.45-.31.46-.61.92-.88,1.41-.1.16-.19.33-.28.5-.14.24-.26.49-.39.73-2.56,5.17-3.51,13.28-1.53,18.84,2.14,5.99,7.14,10.54,12.91,12.98,4.02,1.71,7.87,1.75,12.16,1.57,7.62-2.3,13-5.79,16.93-12.89,2.78-5.03,2.98-11.07,1.26-16.49Zm-22.14,17.45c-5.68,0-10.29-4.6-10.29-10.28s4.61-10.29,10.29-10.29,10.28,4.6,10.28,10.29-4.6,10.28-10.28,10.28Z"/>
    <path class="cls-1" d="m482.35,353.03c-9.69,19.09-28.55,35.72-49.03,42.27-20.23,6.46-44.51,4.5-63.34-5.47-18.67-9.89-30.69-27.04-36.64-47.01-8.07-27.05-6.71-56.25,6.91-81.37,13.61-25.12,37.61-43.94,64.82-52.12,2.44.3,4.78.62,6.73,2.32,1.83,1.59,2.59,4.21,2.37,6.58-.25,2.57-1.08,4.72-3.27,6.21-3.21,2.17-8.13,2.42-11.73,3.94-7.23,3.06-14.15,7.76-20.43,12.43-17.76,13.19-31,32.77-34,54.95-2.84,20.95,2.03,47.38,15.32,64.43,9.2,11.8,24.62,20.42,39.56,22.02,17.98,1.92,35.22-2.99,49.3-14.24,13.36-10.66,23.98-25.62,25.31-43.08,1.07-13.9-6.77-29.79-16.05-39.74-8.23-8.81-20.18-13.74-32.2-13.8-12.72-.05-29.42,3.59-38.45,13.19-5.73,6.1-7.48,14.33-7.06,22.5.57,11.25,4.48,23,13.22,30.56,6.97,6.03,14.31,7.81,23.3,7.03,7.29-.62,14.07-4.34,18.61-10.08,3.09-3.92,4.73-8.9,3.88-13.89-.61-3.54-2.55-6.74-5.5-8.79-3.39-2.35-8.59-3.44-12.6-2.36-3.27.89-4.85,2.26-6.56,5.04-.05,2.3.16,3.22,1.4,5.17,3.63.9,7.15-.24,10.64.43,3.09.6,3.7,2.8,5.13,5.21.15,1.86.44,3.98-.29,5.75-1.02,2.43-3.71,4.41-6.17,5.23-4.64,1.56-10.23.78-14.51-1.46-5.19-2.71-9.14-7.37-10.76-13.02-1.5-5.27-1.23-10.83,1.74-15.55,3.75-5.98,11.9-10.89,18.77-12.1,9.05-1.58,16.11.73,23.44,5.94l1.17.84c3.75,3.61,6.6,7.29,8.62,12.13,2.92,6.96,2.39,16.6-.63,23.37-4.33,9.69-13.89,18.58-23.8,22.34-11.09,4.2-24.2,3.57-34.99-1.21-12.43-5.5-20.51-15.03-25.25-27.57-5.29-13.97-6.78-33.28-.18-46.98,5.22-10.85,14.95-17.98,26.12-22.03,17.21-6.23,40.7-7.69,57.41.66,16.33,8.17,27.25,21.84,33.01,39,6.04,17.98,5.32,35.27-3.34,52.34Z"/>
  </g>
  <circle class="cls-1" cx="252.11" cy="352.84" r="10.64" transform="translate(-175.65 281.61) rotate(-45)"/>
</svg>