<svg xmlns="http://www.w3.org/2000/svg" width="32.746" height="32.743" viewBox="0 0 32.746 32.743">
  <g id="Group_3507" data-name="Group 3507" transform="translate(7191.373 -5942.629)">
    <path id="Path_5742" style="fill: white;" data-name="Path 5742" d="M32.345,30.408,29.957,28.02a5.43,5.43,0,0,0-3.615-4.5,10.847,10.847,0,0,0,.941-4.42,8.853,8.853,0,0,0-.136-1.364h2.865a1.364,1.364,0,1,0,0-2.728H26.492c-.409-1.391-.9-2.851-1.35-4.092h.778a5.455,5.455,0,0,0,5.457-5.457V4.093a1.364,1.364,0,1,0-2.728,0V5.457A2.736,2.736,0,0,1,25.92,8.186H24.092c-.136-.327-.218-.532-.218-.546a8.161,8.161,0,0,0-14.76-.45L2.334.4A1.37,1.37,0,0,0,.4,2.334L30.408,32.345a1.34,1.34,0,0,0,.969.4,1.4,1.4,0,0,0,.969-.4,1.358,1.358,0,0,0,0-1.923ZM11.364,8.731a5.465,5.465,0,0,1,10.013,0c.559,1.282,3.178,8.089,3.178,10.367a8.105,8.105,0,0,1-.573,2.96L11.16,9.222c.082-.191.15-.355.218-.491Z" transform="translate(-7191.371 5942.631)" fill="#252525"/>
    <path id="Path_5743" style="fill: white;" data-name="Path 5743" d="M21.326,23.5a1.354,1.354,0,0,0-1.814-.641A8.181,8.181,0,0,1,7.821,15.468a14.128,14.128,0,0,1,.791-3.7,1.368,1.368,0,0,0-2.619-.791c-.041.136-.068.259-.109.4H2.364a1.364,1.364,0,0,0,0,2.728H5.229a9.187,9.187,0,0,0-.136,1.364,10.878,10.878,0,0,0,.941,4.42,5.457,5.457,0,0,0-3.67,5.129v1.364a1.364,1.364,0,1,0,2.728,0V25.017a2.72,2.72,0,0,1,2.428-2.7A10.906,10.906,0,0,0,20.685,25.33a1.354,1.354,0,0,0,.641-1.814Z" transform="translate(-7191.005 5946.276)" fill="#252525"/>
  </g>
</svg>
