<svg xmlns="http://www.w3.org/2000/svg" width="40.31" height="36.951" viewBox="0 0 40.31 36.951">
  <path id="display-code"  style="fill: white;" d="M30.436,12.554a5.042,5.042,0,0,1,0,7.125L26.1,24.019a1.679,1.679,0,1,1-2.375-2.375l4.338-4.34a1.681,1.681,0,0,0,0-2.375l-4.338-4.34A1.679,1.679,0,1,1,26.1,8.214l4.338,4.34ZM16.587,10.589a1.679,1.679,0,0,0-2.375-2.375l-4.338,4.34a5.042,5.042,0,0,0,0,7.125l4.338,4.34a1.679,1.679,0,1,0,2.375-2.375L12.249,17.3a1.681,1.681,0,0,1,0-2.375l4.338-4.34ZM40.31,9.4V22.834a8.407,8.407,0,0,1-8.4,8.4H21.834v3.359h6.718a1.68,1.68,0,0,1,0,3.359h-16.8a1.68,1.68,0,0,1,0-3.359h6.718V31.232H8.4a8.407,8.407,0,0,1-8.4-8.4V9.4A8.407,8.407,0,0,1,8.4,1H31.912A8.407,8.407,0,0,1,40.31,9.4Zm-3.359,0a5.045,5.045,0,0,0-5.039-5.039H8.4A5.045,5.045,0,0,0,3.359,9.4V22.834A5.045,5.045,0,0,0,8.4,27.873H31.912a5.045,5.045,0,0,0,5.039-5.039Z" transform="translate(0 -1)" fill="#252525"/>
</svg>
