<svg xmlns="http://www.w3.org/2000/svg" width="45" height="45" viewBox="0 0 45 45">
  <path id="feedback-review" style="fill: white;" d="M44.553,12.37,41.6,14.779,42.819,18.5a1.251,1.251,0,0,1-1.869,1.442L37.507,17.7l-3.384,2.265a1.25,1.25,0,0,1-1.888-1.414l1.176-3.77-2.972-2.419a1.25,1.25,0,0,1,.81-2.2H35l1.327-3.725a1.251,1.251,0,0,1,2.344,0L40,10.163H43.75a1.25,1.25,0,0,1,.8,2.207ZM15.442,6.741,18.413,9.16l-1.176,3.77a1.25,1.25,0,0,0,1.888,1.414l3.384-2.265,3.442,2.242a1.251,1.251,0,0,0,1.869-1.442L26.6,9.154l2.957-2.409a1.25,1.25,0,0,0-.8-2.207H25L23.672.813a1.251,1.251,0,0,0-2.344,0L20,4.538H16.25a1.25,1.25,0,0,0-.81,2.2Zm-4.488,13.2A1.251,1.251,0,0,0,12.822,18.5L11.6,14.777l2.957-2.409a1.25,1.25,0,0,0-.8-2.207H10L8.673,6.436a1.251,1.251,0,0,0-2.344,0L5,10.161H1.251a1.25,1.25,0,0,0-.81,2.2l2.972,2.419-1.176,3.77a1.25,1.25,0,0,0,1.888,1.414L7.509,17.7l3.442,2.242ZM37.389,32.977l-1.2,5.992A7.5,7.5,0,0,1,28.838,45H13.124A5.624,5.624,0,0,1,7.5,39.374v-7.5a5.624,5.624,0,0,1,5.625-5.625h2.73l4.112-7.779a2.8,2.8,0,0,1,1.279-1.348,3.118,3.118,0,0,1,1.2-.247,2.761,2.761,0,0,1,2.685,2.13,2.682,2.682,0,0,1-.013,1.123L24.029,26.25h7.843a5.625,5.625,0,0,1,5.516,6.727ZM13.126,41.249H15V30H13.126a1.878,1.878,0,0,0-1.875,1.875v7.5A1.878,1.878,0,0,0,13.126,41.249Zm20.2-10.563A1.848,1.848,0,0,0,31.873,30H18.751v11.25H28.836a3.759,3.759,0,0,0,3.677-3.015l1.2-5.992a1.847,1.847,0,0,0-.388-1.556Z" transform="translate(0 0.001)" fill="#252525"/>
</svg>
