<svg xmlns="http://www.w3.org/2000/svg" width="38.365" height="38.372" viewBox="0 0 38.365 38.372">
  <path id="rocket-lunch" style="fill: white;" d="M3,28.579A18,18,0,0,0,.07,34.973,2.78,2.78,0,0,0,3.4,38.3a18,18,0,0,0,6.385-2.932h0A4.8,4.8,0,0,0,3,28.579ZM7.524,33.1h0a16.1,16.1,0,0,1-4.156,1.893,16.145,16.145,0,0,1,1.893-4.156A1.6,1.6,0,1,1,7.521,33.1ZM28.773,13.588a4,4,0,1,1-4-4A4,4,0,0,1,28.773,13.588ZM33.524,0h0A24.757,24.757,0,0,0,13.8,9.6,17.688,17.688,0,0,0,6.5,11.46a12.948,12.948,0,0,0-6.11,5.86,4.724,4.724,0,0,0,.4,4.476,4.81,4.81,0,0,0,4.03,2.182H8.792a5.622,5.622,0,0,1,5.595,5.595v3.974a4.81,4.81,0,0,0,2.179,4.03,4.724,4.724,0,0,0,4.476.4,12.948,12.948,0,0,0,5.86-6.11,17.688,17.688,0,0,0,1.859-7.3A24.789,24.789,0,0,0,38.365,4.8,4.81,4.81,0,0,0,33.524,0ZM6.947,20.781H4.818a1.6,1.6,0,0,1-1.359-.737,1.519,1.519,0,0,1-.136-1.455,9.873,9.873,0,0,1,4.609-4.271,14.376,14.376,0,0,1,3.186-1.151,54.927,54.927,0,0,0-4.171,7.614Zm17.1,9.652a9.879,9.879,0,0,1-4.27,4.609,1.52,1.52,0,0,1-1.456-.136,1.6,1.6,0,0,1-.737-1.359V31.418A54.927,54.927,0,0,0,25.2,27.247a14.376,14.376,0,0,1-1.156,3.186Zm.216-6.426a47.829,47.829,0,0,1-6.827,3.95,8.792,8.792,0,0,0-7.034-7.034A47.828,47.828,0,0,1,14.358,14.1C19.742,6.593,25.321,3.432,33.569,3.2a1.6,1.6,0,0,1,1.6,1.554c-.235,8.293-3.4,13.872-10.905,19.256Z" transform="translate(0 0)" fill="#252525"/>
</svg>
